<svg id="outline" height="512" viewBox="0 0 512 512" width="512" xmlns="http://www.w3.org/2000/svg"><path d="m512 96h-408v-24h408" fill="#d38f29"/><path d="m512 16h-392v24h392" fill="#d38f29"/><path d="m296 205v-181a16 16 0 0 0 -16-16h-104a16 16 0 0 0 -16 16v177z" fill="#dbd06a"/><path d="m280 8h-104a16 16 0 0 0 -16 16v177l50 1.471v-122.471c4.534-48.97 71.569-61.755 84.017-63.712a15.992 15.992 0 0 0 -14.017-8.288z" fill="#fcfcfc" opacity=".3"/><path d="m320 472.295h-128c-77.32 0-136-62.68-136-140v-52.295h400v52.295c0 77.32-58.68 140-136 140z" fill="#ccc"/><path d="m192 472h128v32h-128z" fill="#b5b5b5"/><path d="m456 332.295v-52.295h-400v52.295a147.358 147.358 0 0 0 6.561 43.705h386.878a147.358 147.358 0 0 0 6.561-43.705z" fill="#e2e2e0"/><path d="m316 200c0-7.593-9.206-13.3-11.944-19.9-2.838-6.844-.471-17.365-5.629-22.523s-15.679-2.791-22.523-5.63c-6.604-2.741-12.311-11.947-19.904-11.947s-13.3 9.206-19.9 11.944c-6.844 2.838-17.365.471-22.523 5.629s-2.791 15.679-5.63 22.523c-2.741 6.604-11.947 12.311-11.947 19.904v80h120z" fill="#79c143"/><path d="m287.88 153.9c-4.81 2.84-9.07 8.09-13.78 10.04-6.85 2.84-17.37.48-22.53 5.63s-2.79 15.68-5.63 22.53c-2.73 6.6-11.94 12.31-11.94 19.9v68h-38v-80c0-7.59 9.21-13.3 11.94-19.9 2.84-6.85.48-17.37 5.63-22.53s15.68-2.79 22.53-5.63c6.6-2.73 12.31-11.94 19.9-11.94s13.3 9.21 19.9 11.94c3.45 1.43 7.82 1.54 11.98 1.96z" fill="#fcfcfc" opacity=".3"/><path d="m256 280a88 88 0 0 1 176 0z" fill="#efe986"/><path d="m296 280a48 48 0 0 1 96 0z" fill="#d3a126"/><path d="m80 280a88 88 0 0 1 176 0z" fill="#efe885"/><path d="m120 280a48 48 0 0 1 96 0z" fill="#d3a126"/><g fill="#fcfcfc"><path d="m184 280h-128v52.295c0 77.32 58.68 140 136 140h56c-100-52.706-64-192.295-64-192.295z" opacity=".5"/><path d="m209.8 202.547a88.026 88.026 0 0 0 -129.8 77.453h66c-.73-53.987 41.115-71.777 63.8-77.453z" opacity=".3"/><path d="m384.8 202.547a88.026 88.026 0 0 0 -129.8 77.453h66c-.73-53.987 41.115-71.777 63.8-77.453z" opacity=".3"/></g><path d="m392 336h-24v-32h-56v32h-24v-32h-56v32h-24v-32h-56v32h-24v-32h-48v16h32v32h56v-32h24v32h56v-32h24v32h56v-32h24v32h56v-32h24v-16h-40z"/><path d="m280 0h-104a23.943 23.943 0 0 0 -17.869 8h-46.131v40h40v16h-56v40h56v81.341a96.189 96.189 0 0 0 -79.664 86.659h-24.336v60.295c0 80.229 59.114 143.648 136 147.781v31.924h144v-31.925c76.886-4.132 136-67.552 136-147.781v-60.294h-24.336a96.014 96.014 0 0 0 -120.379-84.769c-1.219-1.68-2.529-3.219-3.745-4.643-1.711-2-3.48-4.078-4.094-5.556-.684-1.65-.926-4.488-1.16-7.233-.484-5.687-1.087-12.766-6.2-17.882-.027-.027-.056-.05-.083-.077v-47.84h207.997v-16h-208v-8h208v-16h-208v-16h208v-16h-208v-8h208v-16h-214.131a23.943 23.943 0 0 0 -17.869-8zm-152 32v-8h24v8zm-16 56v-8h40v8zm56-64a8.009 8.009 0 0 1 8-8h40v131.27a18.779 18.779 0 0 0 -8.083 4.647c-5.116 5.116-5.719 12.195-6.2 17.883-.234 2.745-.476 5.583-1.16 7.233a7.527 7.527 0 0 1 -.554 1.036v-138.069h-16.003v145.341a96.234 96.234 0 0 0 -16-1.341zm0 176a80.115 80.115 0 0 1 79.6 72h-24.181a55.993 55.993 0 0 0 -110.839 0h-24.18a80.115 80.115 0 0 1 79.6-72zm39.2 72h-78.4a40.005 40.005 0 0 1 78.393 0zm-7.2 224v-15.705h112v15.705zm128-31.957v-.043h-144v.043c-50.324-3.058-91.962-34.807-110.151-80.043h364.3c-18.187 45.236-59.825 76.985-110.149 80.043zm120-131.748a140.334 140.334 0 0 1 -4.564 35.705h-374.872a140.334 140.334 0 0 1 -4.564-35.705v-44.295h384zm-143.2-60.295a40.005 40.005 0 0 1 78.393 0zm118.8 0h-24.181a55.993 55.993 0 0 0 -110.839 0h-24.18a80 80 0 0 1 159.2 0zm-159.6-45v-55h-16v55a96.636 96.636 0 0 0 -39.406-33.978l.036-.042c2.4-2.813 5.123-6 6.7-9.815 1.636-3.946 2-8.227 2.322-12 .236-2.765.591-6.943 1.575-7.926s5.161-1.339 7.926-1.575c3.778-.321 8.059-.686 12-2.322 3.813-1.581 7-4.3 9.815-6.7 2.425-2.075 5.432-4.642 7.032-4.642s4.607 2.567 7.024 4.63c2.813 2.4 6 5.123 9.815 6.7 3.946 1.636 8.227 2 12 2.322 2.765.236 6.943.591 7.926 1.575s1.339 5.161 1.575 7.926c.321 3.778.686 8.059 2.322 12 1.581 3.813 4.3 7 6.7 9.815l.036.042a96.636 96.636 0 0 0 -39.398 33.99zm22.2-81.283c-2.745-.234-5.583-.476-7.233-1.16-1.478-.613-3.551-2.383-5.556-4.094-.458-.391-.93-.792-1.412-1.2v-59.263h-15.999v52c-7.5 0-13 4.691-17.412 8.46-2 1.711-4.078 3.48-5.556 4.094a8.175 8.175 0 0 1 -1.032.331v-128.885h24v40h16v-40h8a8.009 8.009 0 0 1 8 8v121.873c-.611-.057-1.214-.109-1.8-.159z"/></svg>